<svg width="221" height="212" viewBox="0 0 221 212" fill="none" xmlns="http://www.w3.org/2000/svg">
<ellipse cx="38.0831" cy="145.718" rx="5.55882" ry="5.29412" transform="rotate(-21.4029 38.0831 145.718)" fill="#FD0054"/>
<ellipse cx="38.0831" cy="145.718" rx="5.55882" ry="5.29412" transform="rotate(-21.4029 38.0831 145.718)" fill="#FD0054"/>
<ellipse cx="81.4585" cy="128.717" rx="5.55882" ry="5.29412" transform="rotate(-21.4029 81.4585 128.717)" fill="#FD0054"/>
<ellipse cx="53.5388" cy="185.15" rx="5.55882" ry="5.29412" transform="rotate(-21.4029 53.5388 185.15)" fill="#FD0054"/>
<ellipse cx="96.9142" cy="168.149" rx="5.55882" ry="5.29412" transform="rotate(-21.4029 96.9142 168.149)" fill="#FD0054"/>
<ellipse cx="45.8109" cy="165.434" rx="5.55882" ry="5.29412" transform="rotate(-21.4029 45.8109 165.434)" fill="#FD0054"/>
<ellipse cx="45.8109" cy="165.434" rx="5.55882" ry="5.29412" transform="rotate(-21.4029 45.8109 165.434)" fill="#FD0054"/>
<ellipse cx="89.1863" cy="148.433" rx="5.55882" ry="5.29412" transform="rotate(-21.4029 89.1863 148.433)" fill="#FD0054"/>
<ellipse cx="61.2666" cy="204.866" rx="5.55882" ry="5.29412" transform="rotate(-21.4029 61.2666 204.866)" fill="#FD0054"/>
<ellipse cx="104.642" cy="187.865" rx="5.55882" ry="5.29412" transform="rotate(-21.4029 104.642 187.865)" fill="#FD0054"/>
<ellipse cx="59.7709" cy="137.217" rx="5.55882" ry="5.29412" transform="rotate(-21.4029 59.7709 137.217)" fill="#FD0054"/>
<ellipse cx="103.146" cy="120.216" rx="5.55882" ry="5.29412" transform="rotate(-21.4029 103.146 120.216)" fill="#FD0054"/>
<ellipse cx="75.2264" cy="176.649" rx="5.55882" ry="5.29412" transform="rotate(-21.4029 75.2264 176.649)" fill="#FD0054"/>
<ellipse cx="118.602" cy="159.648" rx="5.55882" ry="5.29412" transform="rotate(-21.4029 118.602 159.648)" fill="#FD0054"/>
<ellipse cx="67.4987" cy="156.933" rx="5.55882" ry="5.29412" transform="rotate(-21.4029 67.4987 156.933)" fill="#FD0054"/>
<ellipse cx="67.4987" cy="156.933" rx="5.55882" ry="5.29412" transform="rotate(-21.4029 67.4987 156.933)" fill="#FD0054"/>
<ellipse cx="110.874" cy="139.932" rx="5.55882" ry="5.29412" transform="rotate(-21.4029 110.874 139.932)" fill="#FD0054"/>
<ellipse cx="82.9542" cy="196.366" rx="5.55882" ry="5.29412" transform="rotate(-21.4029 82.9542 196.366)" fill="#FD0054"/>
<ellipse cx="126.33" cy="179.364" rx="5.55882" ry="5.29412" transform="rotate(-21.4029 126.33 179.364)" fill="#FD0054"/>
<ellipse cx="125.457" cy="111.598" rx="5.55882" ry="5.29412" transform="rotate(-21.4029 125.457 111.598)" fill="#FD0054"/>
<ellipse cx="125.457" cy="111.598" rx="5.55882" ry="5.29412" transform="rotate(-21.4029 125.457 111.598)" fill="#FD0054"/>
<ellipse cx="168.833" cy="94.5963" rx="5.55882" ry="5.29412" transform="rotate(-21.4029 168.833 94.5963)" fill="#FD0054"/>
<ellipse cx="140.336" cy="151.256" rx="5.55882" ry="5.29412" transform="rotate(-21.4029 140.336 151.256)" fill="#FD0054"/>
<ellipse cx="184.288" cy="134.028" rx="5.55882" ry="5.29412" transform="rotate(-21.4029 184.288 134.028)" fill="#FD0054"/>
<ellipse cx="133.185" cy="131.314" rx="5.55882" ry="5.29412" transform="rotate(-21.4029 133.185 131.314)" fill="#FD0054"/>
<ellipse cx="133.185" cy="131.314" rx="5.55882" ry="5.29412" transform="rotate(-21.4029 133.185 131.314)" fill="#FD0054"/>
<ellipse cx="176.56" cy="114.312" rx="5.55882" ry="5.29412" transform="rotate(-21.4029 176.56 114.312)" fill="#FD0054"/>
<ellipse cx="148.641" cy="170.746" rx="5.55882" ry="5.29412" transform="rotate(-21.4029 148.641 170.746)" fill="#FD0054"/>
<ellipse cx="192.016" cy="153.745" rx="5.55882" ry="5.29412" transform="rotate(-21.4029 192.016 153.745)" fill="#FD0054"/>
<ellipse cx="147.145" cy="103.097" rx="5.55882" ry="5.29412" transform="rotate(-21.4029 147.145 103.097)" fill="#FD0054"/>
<ellipse cx="190.52" cy="86.0957" rx="5.55882" ry="5.29412" transform="rotate(-21.4029 190.52 86.0957)" fill="#FD0054"/>
<ellipse cx="162.601" cy="142.529" rx="5.55882" ry="5.29412" transform="rotate(-21.4029 162.601 142.529)" fill="#FD0054"/>
<ellipse cx="205.976" cy="125.528" rx="5.55882" ry="5.29412" transform="rotate(-21.4029 205.976 125.528)" fill="#FD0054"/>
<ellipse cx="154.873" cy="122.813" rx="5.55882" ry="5.29412" transform="rotate(-21.4029 154.873 122.813)" fill="#FD0054"/>
<ellipse cx="154.873" cy="122.813" rx="5.55882" ry="5.29412" transform="rotate(-21.4029 154.873 122.813)" fill="#FD0054"/>
<ellipse cx="198.248" cy="105.812" rx="5.55882" ry="5.29412" transform="rotate(-21.4029 198.248 105.812)" fill="#FD0054"/>
<ellipse cx="170.328" cy="162.245" rx="5.55882" ry="5.29412" transform="rotate(-21.4029 170.328 162.245)" fill="#FD0054"/>
<ellipse cx="213.704" cy="145.244" rx="5.55882" ry="5.29412" transform="rotate(-21.4029 213.704 145.244)" fill="#FD0054"/>
<ellipse cx="7.10742" cy="66.6893" rx="5.55882" ry="5.29412" transform="rotate(-21.4029 7.10742 66.6893)" fill="#FD0054"/>
<ellipse cx="7.10742" cy="66.6893" rx="5.55882" ry="5.29412" transform="rotate(-21.4029 7.10742 66.6893)" fill="#FD0054"/>
<ellipse cx="50.4828" cy="49.6881" rx="5.55882" ry="5.29412" transform="rotate(-21.4029 50.4828 49.6881)" fill="#FD0054"/>
<ellipse cx="22.5631" cy="106.121" rx="5.55882" ry="5.29412" transform="rotate(-21.4029 22.5631 106.121)" fill="#FD0054"/>
<ellipse cx="65.9385" cy="89.1202" rx="5.55882" ry="5.29412" transform="rotate(-21.4029 65.9385 89.1202)" fill="#FD0054"/>
<ellipse cx="14.8352" cy="86.4054" rx="5.55882" ry="5.29412" transform="rotate(-21.4029 14.8352 86.4054)" fill="#FD0054"/>
<ellipse cx="14.8352" cy="86.4054" rx="5.55882" ry="5.29412" transform="rotate(-21.4029 14.8352 86.4054)" fill="#FD0054"/>
<ellipse cx="58.2106" cy="69.4042" rx="5.55882" ry="5.29412" transform="rotate(-21.4029 58.2106 69.4042)" fill="#FD0054"/>
<ellipse cx="30.2909" cy="125.838" rx="5.55882" ry="5.29412" transform="rotate(-21.4029 30.2909 125.838)" fill="#FD0054"/>
<ellipse cx="73.6663" cy="108.836" rx="5.55882" ry="5.29412" transform="rotate(-21.4029 73.6663 108.836)" fill="#FD0054"/>
<ellipse cx="28.7952" cy="58.1887" rx="5.55882" ry="5.29412" transform="rotate(-21.4029 28.7952 58.1887)" fill="#FD0054"/>
<ellipse cx="72.1705" cy="41.1875" rx="5.55882" ry="5.29412" transform="rotate(-21.4029 72.1705 41.1875)" fill="#FD0054"/>
<ellipse cx="44.2507" cy="97.6208" rx="5.55882" ry="5.29412" transform="rotate(-21.4029 44.2507 97.6208)" fill="#FD0054"/>
<ellipse cx="87.6261" cy="80.6196" rx="5.55882" ry="5.29412" transform="rotate(-21.4029 87.6261 80.6196)" fill="#FD0054"/>
<ellipse cx="36.523" cy="77.9048" rx="5.55882" ry="5.29412" transform="rotate(-21.4029 36.523 77.9048)" fill="#FD0054"/>
<ellipse cx="36.523" cy="77.9048" rx="5.55882" ry="5.29412" transform="rotate(-21.4029 36.523 77.9048)" fill="#FD0054"/>
<ellipse cx="79.8983" cy="60.9036" rx="5.55882" ry="5.29412" transform="rotate(-21.4029 79.8983 60.9036)" fill="#FD0054"/>
<ellipse cx="51.9785" cy="117.337" rx="5.55882" ry="5.29412" transform="rotate(-21.4029 51.9785 117.337)" fill="#FD0054"/>
<ellipse cx="95.3539" cy="100.336" rx="5.55882" ry="5.29412" transform="rotate(-21.4029 95.3539 100.336)" fill="#FD0054"/>
<ellipse cx="94.4816" cy="32.5689" rx="5.55882" ry="5.29412" transform="rotate(-21.4029 94.4816 32.5689)" fill="#FD0054"/>
<ellipse cx="94.4816" cy="32.5689" rx="5.55882" ry="5.29412" transform="rotate(-21.4029 94.4816 32.5689)" fill="#FD0054"/>
<ellipse cx="137.857" cy="15.5677" rx="5.55882" ry="5.29412" transform="rotate(-21.4029 137.857 15.5677)" fill="#FD0054"/>
<ellipse cx="109.36" cy="72.2273" rx="5.55882" ry="5.29412" transform="rotate(-21.4029 109.36 72.2273)" fill="#FD0054"/>
<ellipse cx="153.313" cy="54.9999" rx="5.55882" ry="5.29412" transform="rotate(-21.4029 153.313 54.9999)" fill="#FD0054"/>
<ellipse cx="102.209" cy="52.285" rx="5.55882" ry="5.29412" transform="rotate(-21.4029 102.209 52.285)" fill="#FD0054"/>
<ellipse cx="102.209" cy="52.285" rx="5.55882" ry="5.29412" transform="rotate(-21.4029 102.209 52.285)" fill="#FD0054"/>
<ellipse cx="145.585" cy="35.2838" rx="5.55882" ry="5.29412" transform="rotate(-21.4029 145.585 35.2838)" fill="#FD0054"/>
<ellipse cx="117.665" cy="91.7171" rx="5.55882" ry="5.29412" transform="rotate(-21.4029 117.665 91.7171)" fill="#FD0054"/>
<ellipse cx="161.04" cy="74.716" rx="5.55882" ry="5.29412" transform="rotate(-21.4029 161.04 74.716)" fill="#FD0054"/>
<ellipse cx="116.169" cy="24.0683" rx="5.55882" ry="5.29412" transform="rotate(-21.4029 116.169 24.0683)" fill="#FD0054"/>
<ellipse cx="159.545" cy="7.06712" rx="5.55882" ry="5.29412" transform="rotate(-21.4029 159.545 7.06712)" fill="#FD0054"/>
<ellipse cx="131.625" cy="63.5005" rx="5.55882" ry="5.29412" transform="rotate(-21.4029 131.625 63.5005)" fill="#FD0054"/>
<ellipse cx="175" cy="46.4993" rx="5.55882" ry="5.29412" transform="rotate(-21.4029 175 46.4993)" fill="#FD0054"/>
<ellipse cx="123.897" cy="43.7844" rx="5.55882" ry="5.29412" transform="rotate(-21.4029 123.897 43.7844)" fill="#FD0054"/>
<ellipse cx="123.897" cy="43.7844" rx="5.55882" ry="5.29412" transform="rotate(-21.4029 123.897 43.7844)" fill="#FD0054"/>
<ellipse cx="167.272" cy="26.7832" rx="5.55882" ry="5.29412" transform="rotate(-21.4029 167.272 26.7832)" fill="#FD0054"/>
<ellipse cx="139.353" cy="83.2166" rx="5.55882" ry="5.29412" transform="rotate(-21.4029 139.353 83.2166)" fill="#FD0054"/>
<ellipse cx="182.728" cy="66.2154" rx="5.55882" ry="5.29412" transform="rotate(-21.4029 182.728 66.2154)" fill="#FD0054"/>
</svg>
