<svg width="229" height="93" viewBox="0 0 229 93" fill="none" xmlns="http://www.w3.org/2000/svg">
<rect x="2" y="46.7317" width="44.7316" height="44.7316" transform="rotate(-90 2 46.7317)" fill="#2B2024"/>
<path d="M46.7316 46.7317H2L46.7316 2.00008V46.7317Z" fill="#FBF9FA" stroke="#FBF9FA"/>
<rect x="2" y="91.4627" width="44.7316" height="44.7316" transform="rotate(-90 2 91.4627)" fill="#2B2024"/>
<rect x="227" y="46.7317" width="44.7316" height="44.7316" transform="rotate(90 227 46.7317)" fill="#2B2024"/>
<path d="M182.269 46.7317L227 46.7317L182.269 91.4633L182.269 46.7317Z" fill="#FBF9FA" stroke="#FBF9FA"/>
<rect x="227" y="2.00003" width="44.7316" height="44.7316" transform="rotate(90 227 2.00003)" fill="#2B2024"/>
<rect x="137.537" y="46.7317" width="44.7316" height="44.7316" fill="#2B2024"/>
<path d="M137.537 91.4633V46.7317L182.269 91.4633L137.537 91.4633Z" fill="#FBF9FA" stroke="#FBF9FA"/>
<rect x="137.537" y="2.44733" width="44.7316" height="44.7316" fill="#FD0054"/>
<path d="M137.537 47.179V2.44733L182.269 47.179L137.537 47.179Z" fill="#FBF9FA" stroke="#FBF9FA"/>
<rect x="92.3584" y="46.7317" width="44.7316" height="44.7316" fill="#2B2024"/>
</svg>
